<?xml version="1.0" standalone="no"?>
<!DOCTYPE svg PUBLIC "-//W3C//DTD SVG 20010904//EN"
 "http://www.w3.org/TR/2001/REC-SVG-20010904/DTD/svg10.dtd">
<svg version="1.0" xmlns="http://www.w3.org/2000/svg"
 width="512.000000pt" height="512.000000pt" viewBox="0 0 512.000000 512.000000"
 preserveAspectRatio="xMidYMid meet">

<g transform="translate(0.000000,512.000000) scale(0.100000,-0.100000)"
fill="#000000" stroke="none">
<path d="M2365 5109 c-615 -44 -1195 -315 -1631 -760 -196 -201 -328 -385
-454 -634 -251 -495 -332 -1037 -239 -1593 86 -513 343 -1009 714 -1376 403
-398 879 -633 1465 -723 173 -26 528 -24 715 5 558 87 1044 331 1435 722 683
684 922 1690 619 2614 -292 891 -1070 1561 -1991 1715 -221 37 -411 46 -633
30z m1061 -1626 c-44 -68 -886 -1445 -886 -1449 0 -2 191 -4 425 -4 l425 0 0
-215 0 -215 -860 0 -860 0 48 78 c138 222 842 1379 847 1395 7 16 -15 17 -374
17 l-381 0 0 215 0 215 820 0 820 0 -24 -37z"/>
</g>
</svg>
